<?xml version="1.0" encoding="utf-8"?>
<!-- Generator: Adobe Illustrator 19.0.0, SVG Export Plug-In . SVG Version: 6.00 Build 0)  -->
<svg version="1.1" id="Capa_1" xmlns="http://www.w3.org/2000/svg" xmlns:xlink="http://www.w3.org/1999/xlink" x="0px" y="0px"
	 viewBox="-49 141 512 512" style="enable-background:new -49 141 512 512;" xml:space="preserve">
<style type="text/css">
	.st0{fill:#FF9F6B;}
</style>
<g>
	<g>
		<path class="st0" d="M441,456.1c-2.5-4-2.7-10.8,1.1-15.6c4.2-6.6,5.5-14.7,3.4-22.2s-7.2-13.9-14.1-17.5c-5-1.9-9.8-8.1-8.7-15
			c0.4-7.8-2.6-15.4-8.1-20.9c-5.5-5.5-13.1-8.5-20.9-8.1c-5.3,0.8-12.5-2.1-15-8.7c-3.6-6.9-10-12.1-17.5-14.1
			c-7.5-2-15.6-0.8-22.2,3.4c-4.2,3.4-11.9,4.4-17.3,0c-6.6-4.2-14.7-5.5-22.2-3.4c-7.5,2-13.9,7.2-17.5,14.1c-1.9,5-8.1,9.8-15,8.7
			c-7.8-0.4-15.4,2.6-20.9,8.1c-5.5,5.5-8.5,13.1-8.1,20.9c0.8,5.3-2.1,12.5-8.7,15c-6.9,3.6-12.1,10-14.1,17.5
			c-2,7.5-0.8,15.6,3.4,22.2c3.4,4.2,4.4,11.9,0,17.3c-4.2,6.6-5.5,14.7-3.4,22.2c2,7.5,7.2,13.9,14.1,17.5c5,1.9,9.8,8.1,8.7,15
			c-0.4,7.8,2.6,15.4,8.1,20.9c6.7,7.1,16.7,8.2,26.8,8.4H60.8c-7.3,0-13.3-6-13.3-13.3v-97.3h11.8c4.1,0,7.5-3.4,7.5-7.5
			c0-4.1-3.4-7.5-7.5-7.5H47.5V244.2h11.8c4.1,0,7.5-3.4,7.5-7.5c0-4.1-3.4-7.5-7.5-7.5H47.5v-59.9c0-7.3,6-13.3,13.3-13.3h276.8
			c7.3,0,13.3,6,13.3,13.3v136.1c0,4.1,3.4,7.5,7.5,7.5s7.5-3.4,7.5-7.5V169.3c0-15.6-12.7-28.3-28.3-28.3H60.8
			c-15.6,0-28.3,12.7-28.3,28.3v3h-6.4c-15.6,0-28.3,12.7-28.3,28.3v29.4c-17.3,3.5-30.4,18.8-30.4,37.2c0,18.3,13.1,33.7,30.4,37.2
			v112.8c-17.3,3.5-30.4,18.8-30.4,37.2c0,18.3,13.1,33.7,30.4,37.2v68.5c0,15.6,12.7,28.3,28.3,28.3h218.5c4.1,0,7.5-3.4,7.5-7.5
			c0-4.1-3.4-7.5-7.5-7.5H26.1c-7.3,0-13.3-6-13.3-13.3V431.3h19.6v97.3c0,15.6,12.7,28.3,28.3,28.3h213v77.4
			c0,9.3,7.8,18.5,18.6,18.6c3.3,0,6.6-0.9,9.6-2.7l28.5-17.1l28.5,17.1c5.8,3.5,12.8,3.6,18.7,0.2c5.9-3.3,9.4-9.4,9.4-16.2v-92.2
			c8.3-0.8,20.6-0.5,27.6-8.7c5.5-5.5,8.5-13.1,8.1-20.9c-0.8-5.3,2.1-12.5,8.7-15c6.9-3.6,12.1-10,14.1-17.5s0.8-15.6-3.4-22.2
			L441,456.1z M26.1,187.3h6.4v41.9H12.9v-28.6C12.9,193.2,18.8,187.3,26.1,187.3z M-17.5,454.2c0-10,6.4-18.5,15.4-21.7v43.3
			C-11.1,472.8-17.5,464.2-17.5,454.2L-17.5,454.2z M12.9,416.3V273.1c0-4.1-3.4-7.5-7.5-7.5s-7.5,3.4-7.5,7.5v15.6
			c-8.9-3.1-15.4-11.6-15.4-21.7c0-12.6,10.3-22.9,22.9-22.9h27.1v172.1H12.9z M370.3,637.5c-0.5,0.3-2,0.9-3.6,0L334.3,618
			c-2.4-1.4-5.3-1.4-7.7,0l-32.4,19.4c-1.7,0.6-4,1.5-5.4-3.1v-75.7c3.1,2.6,6.8,4.6,10.8,5.7c7.5,2,15.6,0.8,22.2-3.4
			c12.4-9.7,24.5,9.5,39.5,3.4c4-1.1,7.7-3,10.8-5.7v75.7C372.1,636.3,370.8,637.2,370.3,637.5L370.3,637.5z M431.1,476.2
			c-0.9,3.5-3.2,6.4-6.5,8.1c-10.5,4.5-18.2,16.8-16.8,29c0.2,3.6-1.2,7.1-3.7,9.6c-2.6,2.6-6,3.9-9.6,3.7
			c-11.2-1.2-23.8,4.8-29,16.8c-1.7,3.2-4.5,5.5-8.1,6.5c-3.5,0.9-7.1,0.4-10.2-1.6c-9.1-6.7-23.1-7.6-33.5,0
			c-3.1,2-6.7,2.5-10.2,1.6c-3.5-0.9-6.4-3.2-8.1-6.5c-4.5-10.2-16-18.2-29-16.8c-3.6,0.2-7.1-1.2-9.6-3.7c-2.6-2.6-3.9-6-3.7-9.6
			c1.4-11.4-5.4-24.2-16.8-29c-3.2-1.7-5.5-4.5-6.5-8.1c-0.9-3.5-0.4-7.1,1.6-10.2c6.8-9.1,7.4-23.7,0-33.5c-2-3.1-2.5-6.7-1.6-10.2
			c0.9-3.5,3.2-6.4,6.5-8.1c10.5-4.5,18.2-16.8,16.8-29c-0.2-3.6,1.2-7.1,3.7-9.6c2.6-2.6,6-3.9,9.6-3.7c11.4,1.4,24.2-5.4,29-16.8
			c1.7-3.2,4.5-5.5,8.1-6.5c3.5-0.9,7.1-0.4,10.2,1.6c9.1,6.8,23.7,7.4,33.5,0c3.1-2,6.7-2.5,10.2-1.6c3.5,0.9,6.4,3.2,8.1,6.5
			c4.5,10.5,16.8,18.2,29,16.8c3.6-0.2,7.1,1.2,9.6,3.7c2.6,2.6,3.9,6,3.7,9.6c-1.4,11.4,5.4,24.2,16.8,29c3.2,1.7,5.5,4.5,6.5,8.1
			c0.9,3.5,0.4,7.1-1.6,10.2c-6.8,9.1-7.4,23.7,0,33.5C431.5,469,432,472.7,431.1,476.2L431.1,476.2z"/>
		<path class="st0" d="M330.4,368.6c-44.4,0-80.6,36.1-80.6,80.6s36.1,80.6,80.6,80.6s80.6-36.1,80.6-80.6S374.8,368.6,330.4,368.6
			L330.4,368.6z M330.4,514.8c-36.1,0-65.6-29.4-65.6-65.6s29.4-65.6,65.6-65.6S396,413,396,449.2S366.6,514.8,330.4,514.8
			L330.4,514.8z"/>
		<path class="st0" d="M362.1,431.2l-13.3-4.1l-7.7-11.6c-2.3-3.4-6.1-5.5-10.2-5.6c-4.1-0.1-8,1.9-10.4,5.3l-8.1,11.4l-13.4,3.7
			c-4,1.1-7.1,4.1-8.5,8c-1.3,3.9-0.7,8.2,1.8,11.5l8.3,11.2l-0.6,13.9c-0.2,4.1,1.7,8,5,10.5c3.3,2.5,7.6,3.2,11.5,1.8l13.2-4.5
			l13.1,4.9c2.7,1,7.1,1.3,11.5-1.5c3.4-2.4,5.3-6.2,5.3-10.4l-0.2-13.9l8.7-10.9c2.6-3.2,3.4-7.5,2.1-11.4
			C369.1,435.5,366,432.4,362.1,431.2L362.1,431.2z M347.2,453.1c-1.8,2.2-2.7,5.1-2.7,7.9l0.1,11.2l-10.5-3.9
			c-1.4-0.5-2.9-0.8-4.4-0.8c-1.4,0-2.7,0.2-4,0.7l-10.6,3.6l0.5-11.2c0.1-2.9-0.8-5.7-2.5-8l-6.7-9l10.8-3c2.8-0.8,5.2-2.5,6.8-4.8
			l6.4-9.1l6.2,9.3c1.6,2.4,4,4.2,6.7,5h0l10.7,3.3L347.2,453.1z"/>
		<path class="st0" d="M304,305.1c4.1,0,7.5-3.4,7.5-7.5c0-4.1-3.4-7.5-7.5-7.5h-12.9l3.7-69.8c0.2-4.2-1.3-8.4-4.2-11.4
			c-2.9-3.1-7-4.8-11.2-4.8h-38.2c-4.2,0-8.3,1.8-11.2,4.8s-4.4,7.2-4.2,11.4l1.7,31.5c-7-5.4-15.8-8.6-25.3-8.6h-48
			c-23,0-41.8,18.7-41.8,41.8v5.1H93.9c-4.1,0-7.5,3.4-7.5,7.5s3.4,7.5,7.5,7.5L304,305.1L304,305.1z M241.3,219h38.2
			c0,0,0.4,0,0.4,0.4l-3.8,70.6h-31.5l-3.8-70.6C240.8,219.1,241.2,219,241.3,219z M127.5,290.1V285c0-14.8,12-26.8,26.8-26.8h48
			c14.8,0,26.8,12,26.8,26.8v5.1H127.5z"/>
		<path class="st0" d="M93.9,368.2h66.4c4.1,0,7.5-3.4,7.5-7.5s-3.4-7.5-7.5-7.5H93.9c-4.1,0-7.5,3.4-7.5,7.5S89.7,368.2,93.9,368.2
			z"/>
		<path class="st0" d="M190,416.3H93.9c-4.1,0-7.5,3.4-7.5,7.5c0,4.1,3.4,7.5,7.5,7.5H190c4.1,0,7.5-3.4,7.5-7.5
			C197.5,419.7,194.2,416.3,190,416.3z"/>
		<path class="st0" d="M190,446H93.9c-4.1,0-7.5,3.4-7.5,7.5s3.4,7.5,7.5,7.5H190c4.1,0,7.5-3.4,7.5-7.5S194.2,446,190,446z"/>
		<path class="st0" d="M190,475.7h-45.4c-4.1,0-7.5,3.4-7.5,7.5s3.4,7.5,7.5,7.5H190c4.1,0,7.5-3.4,7.5-7.5S194.2,475.7,190,475.7z"
			/>
		<path class="st0" d="M93.9,475.7c-4.1,0-7.5,3.4-7.5,7.5s3.4,7.5,7.5,7.5h15.7c4.1,0,7.5-3.4,7.5-7.5s-3.4-7.5-7.5-7.5H93.9z"/>
		<path class="st0" d="M163.8,228.7c3.1-3.1,3.1-8,0-11c-3-3-8-3-11,0c-3.1,3.1-3.1,8,0,11C155.8,231.8,160.7,231.8,163.8,228.7z"/>
		<path class="st0" d="M189.6,228.7c3.1-3.1,3.1-8,0-11c-3-3-8-3-11,0c-3.1,3.1-3.1,8,0,11C181.6,231.8,186.5,231.8,189.6,228.7z"/>
	</g>
</g>
</svg>
